<svg width="21" height="16" viewBox="0 0 25 20" fill="none" xmlns="http://www.w3.org/2000/svg">
<path fill-rule="evenodd" clip-rule="evenodd" d="M25 10C25 9.70536 24.9059 9.42278 24.7385 9.21444C24.5711 9.00609 24.344 8.88904 24.1072 8.88904H3.04962L8.6689 1.89892C8.75191 1.79562 8.81775 1.673 8.86268 1.53804C8.9076 1.40308 8.93073 1.25844 8.93073 1.11236C8.93073 0.966282 8.9076 0.821635 8.86268 0.686677C8.81775 0.55172 8.75191 0.429094 8.6689 0.325802C8.58589 0.22251 8.48734 0.140575 8.37889 0.0846733C8.27043 0.0287721 8.15419 0 8.0368 0C7.9194 0 7.80316 0.0287721 7.69471 0.0846733C7.58625 0.140575 7.4877 0.22251 7.40469 0.325802L0.262294 9.21344C0.17915 9.31664 0.113185 9.43924 0.0681764 9.57421C0.0231678 9.70918 0 9.85387 0 10C0 10.1461 0.0231678 10.2908 0.0681764 10.4258C0.113185 10.5608 0.17915 10.6834 0.262294 10.7866L7.40469 19.6742C7.4877 19.7775 7.58625 19.8594 7.69471 19.9153C7.80316 19.9712 7.9194 20 8.0368 20C8.15419 20 8.27043 19.9712 8.37889 19.9153C8.48734 19.8594 8.58589 19.7775 8.6689 19.6742C8.75191 19.5709 8.81775 19.4483 8.86268 19.3133C8.9076 19.1784 8.93073 19.0337 8.93073 18.8876C8.93073 18.7416 8.9076 18.5969 8.86268 18.462C8.81775 18.327 8.75191 18.2044 8.6689 18.1011L3.04962 11.111H24.1072C24.344 11.111 24.5711 10.9939 24.7385 10.7856C24.9059 10.5772 25 10.2946 25 10Z" fill="#1C1C1C"/>
</svg>
