<svg width="21" height="16" viewBox="0 0 25 20" fill="none" xmlns="http://www.w3.org/2000/svg">
<path fill-rule="evenodd" clip-rule="evenodd" d="M0 10C0 9.70536 0.0940626 9.42278 0.261495 9.21444C0.428928 9.00609 0.656015 8.88904 0.8928 8.88904H21.9504L16.3311 1.89892C16.1635 1.69031 16.0693 1.40737 16.0693 1.11236C16.0693 0.817343 16.1635 0.53441 16.3311 0.325802C16.4987 0.117194 16.7261 6.95081e-09 16.9632 0C17.2003 -6.95081e-09 17.4277 0.117194 17.5953 0.325802L24.7377 9.21344C24.8209 9.31664 24.8868 9.43924 24.9318 9.57421C24.9768 9.70918 25 9.85387 25 10C25 10.1461 24.9768 10.2908 24.9318 10.4258C24.8868 10.5608 24.8209 10.6834 24.7377 10.7866L17.5953 19.6742C17.4277 19.8828 17.2003 20 16.9632 20C16.7261 20 16.4987 19.8828 16.3311 19.6742C16.1635 19.4656 16.0693 19.1827 16.0693 18.8876C16.0693 18.5926 16.1635 18.3097 16.3311 18.1011L21.9504 11.111H0.8928C0.656015 11.111 0.428928 10.9939 0.261495 10.7856C0.0940626 10.5772 0 10.2946 0 10Z" fill="#F2F2F2"/>
</svg>
