<svg width="45" height="45" viewBox="0 0 45 45" fill="none" xmlns="http://www.w3.org/2000/svg">
<path d="M3.75 45C3.75 45 0 45 0 41.25C0 37.5 3.75 26.25 22.5 26.25C41.25 26.25 45 37.5 45 41.25C45 45 41.25 45 41.25 45H3.75ZM22.5 22.5C25.4837 22.5 28.3452 21.3147 30.455 19.205C32.5647 17.0952 33.75 14.2337 33.75 11.25C33.75 8.26631 32.5647 5.40483 30.455 3.29505C28.3452 1.18526 25.4837 0 22.5 0C19.5163 0 16.6548 1.18526 14.545 3.29505C12.4353 5.40483 11.25 8.26631 11.25 11.25C11.25 14.2337 12.4353 17.0952 14.545 19.205C16.6548 21.3147 19.5163 22.5 22.5 22.5Z" fill="#F2F2F2"/>
</svg>
