<svg width="50" height="40" viewBox="0 0 43 57" fill="none" xmlns="http://www.w3.org/2000/svg">
<path fill-rule="evenodd" clip-rule="evenodd" d="M21.5042 0.749647C21.5013 1.16245 18.6475 13.6436 15.1616 28.4866C11.6767 43.3296 8.81997 55.8107 8.81607 56.2235C8.81118 56.6363 9.68656 56.9731 10.7612 56.9731C11.8359 56.9731 12.7152 56.7553 12.7152 56.4904C12.7152 56.2245 15.5729 43.7794 19.0656 28.8344C22.5584 13.8895 25.4161 1.28739 25.4161 0.830609C25.4161 0.373824 24.5368 0 23.4621 0C22.3874 0 21.5062 0.336841 21.5042 0.749647ZM0.699252 7.6284C-0.438939 8.79386 -0.0979703 26.7984 1.07637 27.541C3.40355 29.0123 4.41083 25.7419 4.41083 16.7141C4.41083 9.22465 4.13239 7.47948 2.89747 7.23159C2.06508 7.06467 1.07637 7.24259 0.699252 7.6284ZM31.0337 21.0701C30.0939 21.6308 29.324 23.0192 29.324 24.1546C29.324 26.2306 30.1896 26.2946 34.378 24.5244C35.4839 24.0567 36.3603 24.4985 37.0872 25.8878C38.2087 28.0308 37.687 28.8484 32.4015 33.2243C30.1613 35.0795 29.5263 38.9816 31.4646 38.9816C32.1045 38.9816 31.8134 39.5913 30.8178 40.336C28.5874 42.0042 29.452 44.9788 32.167 44.9788C34.7336 44.9788 35.5113 43.4705 34.2197 41.0017C33.5075 39.6393 33.4918 38.9816 34.1748 38.9816C34.7307 38.9816 35.1859 38.5019 35.1859 37.9151C35.1859 37.3284 36.7247 35.3633 38.6054 33.5492C41.0987 31.1433 42.0249 29.4021 42.0249 27.1192C42.0249 21.4549 35.9754 18.1255 31.0337 21.0701ZM0.0143834 31.9849C0.0143834 34.3168 0.448166 34.9835 1.96836 34.9835C3.48855 34.9835 3.92233 34.3168 3.92233 31.9849C3.92233 29.653 3.48855 28.9863 1.96836 28.9863C0.448166 28.9863 0.0143834 29.653 0.0143834 31.9849Z" fill="black"/>
</svg>
