<svg width="107" height="118" viewBox="0 0 107 118" fill="none" xmlns="http://www.w3.org/2000/svg">
<path d="M13.1406 55.5703C12.6719 55.5703 12.2617 55.4883 11.9102 55.3242C11.582 55.1367 11.3008 54.9023 11.0664 54.6211C10.8555 54.3398 10.6914 54.0117 10.5742 53.6367C10.4805 53.2617 10.4336 52.875 10.4336 52.4766C10.457 50.9297 10.5156 49.2656 10.6094 47.4844C10.7266 45.6797 10.832 43.8633 10.9258 42.0352C11.0195 40.207 11.1016 38.4141 11.1719 36.6562C11.2656 34.875 11.3125 33.2227 11.3125 31.6992C11.3125 30.8555 11.2539 30.0117 11.1367 29.168C11.043 28.3242 10.9258 27.4805 10.7852 26.6367C10.668 25.7695 10.5508 24.8906 10.4336 24C10.3398 23.1094 10.293 22.207 10.293 21.293C10.293 20.6367 10.3867 20.0273 10.5742 19.4648C10.7852 18.8789 11.0547 18.375 11.3828 17.9531C11.7109 17.5312 12.0977 17.2031 12.543 16.9688C13.0117 16.7109 13.5039 16.582 14.0195 16.582C15.4492 16.582 16.4453 16.9336 17.0078 17.6367C17.5703 18.3398 17.8516 19.3945 17.8516 20.8008C17.8516 21.6211 17.8164 22.7578 17.7461 24.2109C17.6992 25.6641 17.6172 27.4922 17.5 29.6953C17.3828 31.875 17.2188 34.4414 17.0078 37.3945C16.7969 40.3242 16.5508 43.6758 16.2695 47.4492C16.2461 47.7539 16.2109 48.1641 16.1641 48.6797C16.1406 49.1953 16.082 49.7578 15.9883 50.3672C15.918 50.9531 15.8125 51.5625 15.6719 52.1953C15.5312 52.8047 15.3438 53.3672 15.1094 53.8828C14.8984 54.375 14.6289 54.7852 14.3008 55.1133C13.9727 55.418 13.5859 55.5703 13.1406 55.5703ZM8.07812 64.5352C8.07812 63.9023 8.20703 63.3516 8.46484 62.8828C8.72266 62.4141 9.05078 62.0273 9.44922 61.7227C9.87109 61.3945 10.3398 61.1484 10.8555 60.9844C11.3711 60.8203 11.8984 60.7383 12.4375 60.7383C13.2812 60.7383 13.9375 60.9141 14.4062 61.2656C14.8984 61.6172 15.2734 62.0742 15.5312 62.6367C15.7891 63.1992 15.9531 63.832 16.0234 64.5352C16.0938 65.2383 16.1289 65.9414 16.1289 66.6445C16.1289 66.9961 16.0938 67.3711 16.0234 67.7695C15.9766 68.168 15.8477 68.543 15.6367 68.8945C15.4492 69.2461 15.1562 69.5391 14.7578 69.7734C14.3594 70.0078 13.8203 70.125 13.1406 70.125C11.3125 70.125 10.0117 69.6328 9.23829 68.6484C8.46485 67.6641 8.07812 66.293 8.07812 64.5352Z" fill="#F2F2F2"/>
<path d="M80.1562 76.2812C80.0104 75.3021 80.1875 74.3646 80.6875 73.4688C81.2083 72.5521 81.9375 71.6875 82.875 70.875C83.8125 70.0417 84.9167 69.2604 86.1875 68.5312C87.4583 67.7812 88.7812 67.0833 90.1562 66.4375C91.3854 65.875 92.4896 65.3021 93.4688 64.7188C94.4479 64.1146 95.2812 63.4375 95.9688 62.6875C96.6562 61.9375 97.1875 61.0625 97.5625 60.0625C97.9375 59.0625 98.125 57.875 98.125 56.5C98.125 55.0625 97.875 53.8333 97.375 52.8125C96.875 51.7708 96.2083 50.9271 95.375 50.2812C94.5625 49.6146 93.625 49.1354 92.5625 48.8438C91.5208 48.5312 90.4583 48.375 89.375 48.375C88.5625 48.375 87.8438 48.4792 87.2188 48.6875C86.5938 48.875 86.0104 49.125 85.4688 49.4375C84.9479 49.75 84.4479 50.0833 83.9688 50.4375C83.5104 50.7708 83.0521 51.0938 82.5938 51.4062C82.1354 51.7188 81.6562 51.9792 81.1562 52.1875C80.6562 52.375 80.1042 52.4688 79.5 52.4688C79.25 52.4688 79 52.4375 78.75 52.375C78.5 52.2917 78.2708 52.1562 78.0625 51.9688C77.8542 51.7604 77.6875 51.4896 77.5625 51.1562C77.4375 50.8229 77.375 50.4062 77.375 49.9062C77.375 49.2396 77.6042 48.6146 78.0625 48.0312C78.5208 47.4479 79.1146 46.9167 79.8438 46.4375C80.5938 45.9375 81.4271 45.4896 82.3438 45.0938C83.2604 44.6979 84.1667 44.3646 85.0625 44.0938C85.9583 43.8229 86.7917 43.6146 87.5625 43.4688C88.3542 43.3229 89 43.25 89.5 43.25C91.5417 43.25 93.4271 43.5208 95.1562 44.0625C96.9062 44.6042 98.4062 45.4062 99.6562 46.4688C100.927 47.5312 101.917 48.8542 102.625 50.4375C103.354 52.0208 103.719 53.8646 103.719 55.9688C103.719 59.1979 102.958 61.9375 101.438 64.1875C99.9375 66.4375 97.5312 68.3229 94.2188 69.8438C93.4062 70.2188 92.5521 70.6146 91.6562 71.0312C90.7812 71.4479 89.9896 71.9375 89.2812 72.5C88.5938 73.0417 88.0521 73.6771 87.6562 74.4062C87.2604 75.1354 87.1458 76 87.3125 77C87.4167 77.5417 87.3958 78.0312 87.25 78.4688C87.1042 78.8854 86.7188 79.1562 86.0938 79.2812C85.4896 79.4062 84.8542 79.4167 84.1875 79.3125C83.5208 79.2083 82.8958 79.0208 82.3125 78.75C81.75 78.4583 81.2708 78.1042 80.875 77.6875C80.4792 77.25 80.2396 76.7812 80.1562 76.2812ZM78.375 87.9688C78.375 87.4896 78.5104 87.0208 78.7812 86.5625C79.0521 86.1042 79.3958 85.6979 79.8125 85.3438C80.25 84.9688 80.7188 84.6771 81.2188 84.4688C81.7396 84.2396 82.25 84.125 82.75 84.125C83.2292 84.125 83.7292 84.1771 84.25 84.2812C84.7708 84.3646 85.2396 84.5417 85.6562 84.8125C86.0938 85.0625 86.4479 85.4167 86.7188 85.875C86.9896 86.3125 87.125 86.875 87.125 87.5625C87.125 88.8125 86.7917 89.7708 86.125 90.4375C85.4792 91.1042 84.5104 91.4375 83.2188 91.4375C82.7812 91.4375 82.2812 91.3854 81.7188 91.2812C81.1771 91.1771 80.6562 91 80.1562 90.75C79.6562 90.4792 79.2292 90.125 78.875 89.6875C78.5417 89.2292 78.375 88.6562 78.375 87.9688Z" fill="#F2F2F2"/>
<path d="M63.5448 0.846115L32.4865 116.757" stroke="#F2F2F2" stroke-width="3"/>
</svg>
