<svg width="47" height="58" viewBox="0 0 47 58" fill="none" xmlns="http://www.w3.org/2000/svg">
<g clip-path="url(#clip0_58_47)">
<path d="M4.9807 27.6263L4.96228 27.6146C4.76672 27.4895 4.59872 27.3327 4.45997 27.1464L4.45251 27.1364L4.44556 27.126C4.31934 26.9376 4.22686 26.7263 4.16318 26.4983L4.15964 26.4857L4.15677 26.4728C4.10734 26.2515 4.08299 26.0248 4.08299 25.7936V25.7869L4.08304 25.7869C4.0934 25.0202 4.11934 24.1966 4.16076 23.3163L4.16102 23.3109L4.16105 23.3109C4.21241 22.4259 4.2586 21.5351 4.29971 20.6385L4.9807 27.6263ZM4.9807 27.6263L5.00007 27.6365M4.9807 27.6263L5.00007 27.6365M5.00007 27.6365C5.23791 27.7607 5.50024 27.8143 5.77205 27.8143C6.11273 27.8143 6.4101 27.6773 6.64195 27.4363L6.64834 27.4297L6.65449 27.4228C6.84519 27.2094 6.99193 26.9542 7.10193 26.6684C7.21673 26.385 7.30674 26.0805 7.37362 25.7564L7.37435 25.7527C7.43821 25.4311 7.48665 25.1193 7.51926 24.8175C7.56108 24.5117 7.58803 24.225 7.59929 23.9579C7.61951 23.7083 7.6349 23.5076 7.64525 23.3568L7.64532 23.3558C7.7689 21.5008 7.87702 19.853 7.96969 18.4125L7.96971 18.4122C8.0625 16.9589 8.13471 15.6948 8.18635 14.62L8.18636 14.6198C8.23783 13.537 8.27397 12.6363 8.29471 11.9183C8.3256 11.2032 8.34136 10.6373 8.34136 10.2242C8.34136 9.48843 8.21256 8.84683 7.87746 8.37813C7.4976 7.84682 6.86635 7.65051 6.1581 7.65051C5.83443 7.65051 5.52967 7.74203 5.25161 7.91228C4.98905 8.06776 4.76904 8.28054 4.58934 8.5391C4.41208 8.79417 4.27371 9.0883 4.16879 9.4143L4.16868 9.41427L4.16556 9.42474C4.06787 9.75267 4.02123 10.1008 4.02123 10.4661C4.02123 10.9306 4.04249 11.3898 4.08519 11.8435L4.08506 11.8435L4.08641 11.855C4.13795 12.2933 4.18949 12.7258 4.24104 13.1526L4.24085 13.1526L4.24288 13.1663C4.30345 13.5731 4.35393 13.9797 4.39427 14.3862L4.39412 14.3862L4.39564 14.3984C4.4446 14.7929 4.46905 15.187 4.46905 15.581C4.46905 16.3208 4.44869 17.125 4.40784 17.994L4.40781 17.994M5.00007 27.6365L4.40781 17.994M4.40781 17.994L4.40761 17.9996M4.40781 17.994L4.40761 17.9996M4.40761 17.9996C4.37679 18.8619 4.3408 19.7415 4.29971 20.6385L4.40761 17.9996ZM3.26947 30.688L3.26949 30.688C3.4089 30.4044 3.59236 30.1583 3.82386 29.9598C4.05488 29.7591 4.31445 29.6062 4.60056 29.5044C4.6006 29.5044 4.60064 29.5044 4.60068 29.5044L4.76831 29.9754C4.99479 29.8948 5.22641 29.8545 5.46321 29.8545L3.26947 30.688ZM3.26947 30.688C3.11612 31 3.04834 31.3491 3.04834 31.7207M3.26947 30.688L3.04834 31.7207M3.04834 31.7207C3.04834 32.6423 3.22837 33.4311 3.64873 34.0298L3.04834 31.7207ZM7.28479 30.598C7.14269 30.2511 6.93025 29.9563 6.64467 29.7267L7.28479 30.598ZM7.68693 14.596L7.68692 14.596L7.68693 14.596ZM7.31451 34.0896C7.43266 33.8663 7.50609 33.6274 7.53413 33.3762L6.75727 34.7131C6.7573 34.7131 6.75732 34.7131 6.75735 34.7131C6.99767 34.5549 7.18913 34.3473 7.31451 34.0896Z" fill="#1C1C1C" stroke="#1C1C1C"/>
<path d="M34.7131 37.5601L34.7132 37.5601C34.6358 36.9784 34.7312 36.417 34.9947 35.8886L34.9963 35.8854L34.9963 35.8854C35.2528 35.3802 35.6076 34.9122 36.0527 34.4801C36.4916 34.0439 37.0035 33.6396 37.5852 33.2658C38.1567 32.8885 38.7513 32.5376 39.3687 32.2131L39.3734 32.2106L39.3734 32.2106C39.8977 31.9422 40.3647 31.6708 40.7756 31.3972C41.1694 31.1248 41.4988 30.8239 41.7677 30.4956L34.7131 37.5601ZM34.7131 37.5601L34.7143 37.5678M34.7131 37.5601L34.7143 37.5678M34.7143 37.5678C34.7655 37.9114 34.9123 38.2233 35.1357 38.4997L35.1356 38.4998L35.1433 38.5089C35.3564 38.7599 35.6118 38.9699 35.905 39.14L35.9151 39.1459L35.9255 39.1513C36.2284 39.3086 36.5517 39.4168 36.8934 39.4766C37.2456 39.5382 37.592 39.5337 37.9278 39.4562C38.3139 39.3694 38.6682 39.1464 38.802 38.7186L38.802 38.7186M34.7143 37.5678L38.802 38.7186M42.3127 26.1557L42.3127 26.1557C42.1184 25.7027 41.8671 25.3533 41.5661 25.0922L41.5554 25.0829L41.5556 25.0828C41.2539 24.8058 40.9076 24.6075 40.5115 24.4859L40.4991 24.4821L40.4991 24.4819C40.0921 24.3452 39.6792 24.2775 39.2582 24.2775C38.9484 24.2775 38.6937 24.322 38.4858 24.3996L38.478 24.4025L38.4702 24.4051C38.2356 24.4838 38.0183 24.588 37.8172 24.7174C37.6035 24.8611 37.3985 25.0141 37.2022 25.1765L37.1991 25.1791L37.1991 25.1791C36.9938 25.3461 36.7885 25.5081 36.5828 25.6649L42.3127 26.1557ZM42.3127 26.1557L42.3142 26.1591M42.3127 26.1557L42.3142 26.1591M42.3142 26.1591C42.4993 26.5822 42.6016 27.1144 42.6016 27.7711C42.6016 28.4085 42.5237 28.9359 42.3805 29.3633C42.2333 29.8024 42.028 30.1778 41.7678 30.4956L42.3142 26.1591ZM35.8505 26.1087L35.8415 26.1125C35.554 26.2331 35.2448 26.2897 34.9206 26.2897C34.7634 26.2897 34.6083 26.2676 34.4564 26.2251L34.4362 26.2194L34.4164 26.2121C34.2318 26.1432 34.0712 26.034 33.9344 25.8963L33.9251 25.8869L33.9162 25.877C33.7695 25.7128 33.6666 25.5157 33.5954 25.3034L35.8505 26.1087ZM35.8505 26.1087L35.8593 26.1046M35.8505 26.1087L35.8593 26.1046M35.8593 26.1046C36.1129 25.9864 36.3541 25.8394 36.5828 25.665L35.8593 26.1046ZM33.8799 23.3212L33.8799 23.3212C34.116 22.985 34.4164 22.6865 34.774 22.4234C35.1307 22.1574 35.5239 21.9214 35.9521 21.7145L33.8799 23.3212ZM33.8799 23.3212C33.6239 23.6859 33.4872 24.0923 33.4872 24.5301C33.4872 24.809 33.5178 25.0717 33.5954 25.3034L33.8799 23.3212ZM38.361 20.8763L38.3611 20.8763C38.7244 20.8013 39.0453 20.7584 39.3131 20.7584C40.2595 20.7584 41.144 20.8989 41.9621 21.1856C42.7922 21.4733 43.5133 21.9027 44.1173 22.4768C44.7327 23.053 45.2063 23.7652 45.5416 24.6033C45.891 25.4534 46.0588 26.4259 46.0588 27.51C46.0588 29.1671 45.7095 30.6073 44.9857 31.8069C44.2672 33.0119 43.13 33.9959 41.6146 34.7745C41.2591 34.9582 40.8853 35.152 40.4932 35.356C40.143 35.5428 39.8288 35.7608 39.5491 36.0093L39.5477 36.0106C39.2949 36.2335 39.0977 36.4926 38.9531 36.7907L38.361 20.8763ZM38.361 20.8763L38.3585 20.8768M38.361 20.8763L38.3585 20.8768M38.3585 20.8768C37.9974 20.9532 37.6122 21.0613 37.2037 21.1995L38.3585 20.8768ZM38.802 38.7186L38.804 38.712M38.802 38.7186L38.804 38.712M38.804 38.712C38.8934 38.4116 38.9011 38.0935 38.846 37.7687M38.804 38.712L38.846 37.7687M34.7125 41.587C34.4901 41.7986 34.3066 42.0417 34.1627 42.3141L34.1627 42.3141C34.0089 42.6054 33.9264 42.9154 33.9264 43.2388C33.9264 43.6486 34.0156 44.0312 34.2268 44.3561L34.2336 44.3666L34.2409 44.3767C34.4343 44.644 34.6709 44.8645 34.9496 45.0335L34.9571 45.038L34.9647 45.0422C35.2262 45.1886 35.5018 45.2938 35.7901 45.3558L35.7937 45.3566C36.0644 45.4127 36.3191 45.4438 36.5541 45.4438C37.2173 45.4438 37.8002 45.2493 38.206 44.7825C38.6065 44.3326 38.7699 43.7261 38.7699 43.0391C38.7699 42.6486 38.702 42.2828 38.5313 41.972C38.3794 41.6859 38.1727 41.4477 37.9068 41.2744C37.667 41.1027 37.3981 40.99 37.1061 40.9361C36.849 40.8793 36.596 40.8495 36.3481 40.8495C36.0422 40.8495 35.7444 40.928 35.4595 41.0676C35.1876 41.195 34.9388 41.3701 34.7125 41.587ZM34.7125 41.587C34.7122 41.5873 34.712 41.5875 34.7117 41.5877L35.0578 41.9486L34.7133 41.5863C34.713 41.5865 34.7127 41.5868 34.7125 41.587ZM38.846 37.7687C38.7851 37.3545 38.8334 37.0374 38.953 36.7908L38.846 37.7687ZM37.2036 21.1996C36.7892 21.3397 36.372 21.5116 35.9522 21.7145L37.2036 21.1996Z" fill="#1C1C1C" stroke="#1C1C1C"/>
<path d="M27.9122 0.415894L14.2698 57.389" stroke="#1C1C1C" stroke-width="4"/>
</g>
<defs>
<clipPath id="clip0_58_47">
<rect width="47" height="58" fill="white"/>
</clipPath>
</defs>
</svg>
