<svg width="1901" height="1080" viewBox="0 0 1901 1080" fill="none" xmlns="http://www.w3.org/2000/svg">
<rect x="37" y="152.924" width="130" height="130" rx="30" transform="rotate(-45 37 152.924)" fill="#1C1C1C" fill-opacity="0.75"/>
<path d="M127.453 162.901C126.643 162.332 126.086 161.557 125.781 160.578C125.476 159.569 125.351 158.444 125.408 157.205C125.45 155.952 125.645 154.613 125.992 153.19C126.324 151.752 126.73 150.312 127.209 148.871C127.648 147.592 127.994 146.397 128.246 145.286C128.482 144.16 128.566 143.089 128.496 142.074C128.426 141.059 128.158 140.071 127.692 139.11C127.225 138.15 126.494 137.196 125.497 136.248C124.455 135.258 123.392 134.592 122.308 134.251C121.208 133.896 120.138 133.798 119.095 133.957C118.052 134.086 117.059 134.435 116.116 135.005C115.171 135.544 114.326 136.207 113.58 136.992C113.02 137.581 112.6 138.173 112.321 138.77C112.026 139.352 111.805 139.947 111.658 140.555C111.526 141.148 111.423 141.74 111.35 142.331C111.275 142.893 111.194 143.448 111.104 143.995C111.015 144.543 110.874 145.069 110.68 145.575C110.472 146.067 110.159 146.532 109.743 146.969C109.571 147.151 109.376 147.31 109.158 147.448C108.926 147.572 108.669 147.645 108.39 147.667C108.096 147.674 107.784 147.608 107.457 147.469C107.129 147.33 106.784 147.088 106.422 146.744C105.938 146.285 105.643 145.688 105.536 144.954C105.429 144.22 105.453 143.423 105.608 142.565C105.763 141.677 106.012 140.764 106.357 139.827C106.702 138.89 107.085 138.003 107.506 137.168C107.926 136.332 108.35 135.584 108.775 134.925C109.215 134.251 109.607 133.732 109.951 133.37C111.358 131.89 112.854 130.71 114.437 129.83C116.036 128.935 117.651 128.401 119.282 128.227C120.928 128.038 122.568 128.232 124.204 128.81C125.854 129.372 127.441 130.378 128.966 131.828C131.307 134.053 132.768 136.492 133.351 139.144C133.948 141.782 133.657 144.825 132.477 148.273C132.189 149.12 131.887 150.012 131.572 150.949C131.271 151.87 131.08 152.781 131 153.682C130.919 154.553 131.006 155.384 131.262 156.173C131.518 156.962 132.065 157.641 132.905 158.209C133.369 158.507 133.71 158.859 133.926 159.266C134.128 159.659 134.059 160.125 133.719 160.664C133.393 161.188 132.963 161.656 132.428 162.067C131.893 162.479 131.327 162.803 130.728 163.039C130.129 163.245 129.543 163.349 128.968 163.349C128.378 163.334 127.873 163.185 127.453 162.901ZM134.697 172.244C134.349 171.914 134.103 171.493 133.957 170.981C133.812 170.469 133.754 169.94 133.785 169.394C133.814 168.818 133.926 168.278 134.119 167.772C134.312 167.236 134.581 166.787 134.925 166.425C135.255 166.078 135.638 165.751 136.072 165.446C136.491 165.126 136.943 164.908 137.426 164.792C137.909 164.648 138.409 164.635 138.928 164.754C139.432 164.86 139.933 165.149 140.431 165.623C141.337 166.484 141.802 167.386 141.826 168.328C141.864 169.256 141.438 170.187 140.548 171.124C140.247 171.441 139.864 171.767 139.401 172.103C138.953 172.424 138.465 172.679 137.94 172.87C137.399 173.045 136.848 173.111 136.287 173.066C135.725 172.992 135.195 172.718 134.697 172.244Z" fill="#F2F2F2"/>
<rect x="468" y="60.9239" width="130" height="130" rx="30" transform="rotate(-45 468 60.9239)" fill="#1C1C1C" fill-opacity="0.75"/>
<path d="M558.453 70.9006C557.643 70.3316 557.086 69.5573 556.781 68.5777C556.476 67.5687 556.351 66.4445 556.408 65.2052C556.45 63.9516 556.645 62.6131 556.992 61.1896C557.324 59.7518 557.73 58.3121 558.209 56.8706C558.648 55.5922 558.994 54.3972 559.246 53.2856C559.482 52.1597 559.566 51.0892 559.496 50.0742C559.426 49.0592 559.158 48.0713 558.692 47.1105C558.225 46.1497 557.494 45.1956 556.497 44.2482C555.455 43.2578 554.392 42.5921 553.308 42.2511C552.208 41.8958 551.138 41.7976 550.095 41.9566C549.052 42.0861 548.059 42.4355 547.116 43.0046C546.171 43.5442 545.326 44.2066 544.58 44.9918C544.02 45.5806 543.6 46.1733 543.321 46.7699C543.026 47.352 542.805 47.947 542.658 48.5549C542.526 49.1477 542.423 49.7398 542.35 50.3311C542.275 50.8929 542.194 51.4476 542.104 51.9951C542.015 52.5426 541.874 53.0693 541.68 53.5752C541.472 54.0668 541.159 54.5315 540.743 54.9694C540.571 55.1506 540.376 55.3102 540.158 55.4484C539.925 55.5721 539.669 55.6449 539.39 55.6667C539.095 55.6742 538.784 55.6084 538.457 55.4693C538.129 55.3302 537.784 55.0884 537.422 54.7439C536.938 54.2846 536.643 53.6879 536.536 52.9538C536.429 52.2197 536.453 51.4233 536.608 50.5647C536.763 49.6766 537.012 48.7641 537.357 47.827C537.702 46.8899 538.085 46.0034 538.506 45.1675C538.926 44.3317 539.35 43.5841 539.775 42.925C540.215 42.2507 540.607 41.7324 540.951 41.3701C542.358 39.8903 543.853 38.7105 545.437 37.8304C547.036 36.9353 548.651 36.4008 550.282 36.2269C551.928 36.0379 553.568 36.2322 555.204 36.8097C556.854 37.3722 558.441 38.3783 559.966 39.8281C562.307 42.053 563.768 44.4917 564.351 47.1441C564.948 49.7815 564.657 52.8246 563.477 56.2732C563.189 57.1204 562.887 58.0122 562.572 58.9486C562.271 59.8698 562.08 60.7809 562 61.6818C561.919 62.5533 562.006 63.3837 562.262 64.173C562.518 64.9623 563.065 65.641 563.905 66.2092C564.369 66.5069 564.71 66.8593 564.926 67.2665C565.128 67.6593 565.059 68.1252 564.719 68.6643C564.393 69.1883 563.963 69.656 563.428 70.0674C562.893 70.4788 562.326 70.8026 561.728 71.0388C561.129 71.2455 560.543 71.3488 559.968 71.3486C559.378 71.334 558.873 71.1847 558.453 70.9006ZM565.697 80.2442C565.349 79.9141 565.103 79.493 564.957 78.9809C564.812 78.4688 564.754 77.9398 564.785 77.3938C564.814 76.8183 564.926 76.2776 565.119 75.7717C565.312 75.2363 565.581 74.7874 565.925 74.4251C566.255 74.0778 566.638 73.7513 567.072 73.4456C567.491 73.1255 567.943 72.9078 568.426 72.7924C568.909 72.6476 569.409 72.6349 569.928 72.7544C570.432 72.8596 570.933 73.149 571.431 73.6227C572.337 74.4839 572.802 75.3858 572.826 76.3283C572.864 77.2557 572.438 78.1875 571.548 79.1236C571.247 79.4407 570.864 79.7672 570.401 80.1031C569.953 80.4239 569.465 80.6794 568.94 80.8695C568.399 81.0453 567.848 81.1108 567.287 81.0661C566.725 80.9919 566.195 80.7179 565.697 80.2442Z" fill="#F2F2F2"/>
<rect x="397" y="777.924" width="130" height="130" rx="30" transform="rotate(-45 397 777.924)" fill="#1C1C1C" fill-opacity="0.75"/>
<path d="M487.453 787.901C486.643 787.332 486.086 786.557 485.781 785.578C485.476 784.569 485.351 783.444 485.408 782.205C485.45 780.952 485.645 779.613 485.992 778.19C486.324 776.752 486.73 775.312 487.209 773.871C487.648 772.592 487.994 771.397 488.246 770.286C488.482 769.16 488.566 768.089 488.496 767.074C488.426 766.059 488.158 765.071 487.692 764.11C487.225 763.15 486.494 762.196 485.497 761.248C484.455 760.258 483.392 759.592 482.308 759.251C481.208 758.896 480.138 758.798 479.095 758.957C478.052 759.086 477.059 759.435 476.116 760.005C475.171 760.544 474.326 761.207 473.58 761.992C473.02 762.581 472.6 763.173 472.321 763.77C472.026 764.352 471.805 764.947 471.658 765.555C471.526 766.148 471.423 766.74 471.35 767.331C471.275 767.893 471.194 768.448 471.104 768.995C471.015 769.543 470.874 770.069 470.68 770.575C470.472 771.067 470.159 771.531 469.743 771.969C469.571 772.151 469.376 772.31 469.158 772.448C468.925 772.572 468.669 772.645 468.39 772.667C468.095 772.674 467.784 772.608 467.457 772.469C467.129 772.33 466.784 772.088 466.422 771.744C465.938 771.285 465.643 770.688 465.536 769.954C465.429 769.22 465.453 768.423 465.608 767.565C465.763 766.677 466.012 765.764 466.357 764.827C466.702 763.89 467.085 763.003 467.506 762.167C467.926 761.332 468.35 760.584 468.775 759.925C469.215 759.251 469.607 758.732 469.951 758.37C471.358 756.89 472.853 755.71 474.437 754.83C476.036 753.935 477.651 753.401 479.282 753.227C480.928 753.038 482.568 753.232 484.204 753.81C485.854 754.372 487.441 755.378 488.966 756.828C491.307 759.053 492.768 761.492 493.351 764.144C493.948 766.782 493.657 769.825 492.477 773.273C492.189 774.12 491.887 775.012 491.572 775.949C491.271 776.87 491.08 777.781 491 778.682C490.919 779.553 491.006 780.384 491.262 781.173C491.518 781.962 492.065 782.641 492.905 783.209C493.369 783.507 493.71 783.859 493.926 784.266C494.128 784.659 494.059 785.125 493.719 785.664C493.393 786.188 492.963 786.656 492.428 787.067C491.893 787.479 491.326 787.803 490.728 788.039C490.129 788.245 489.543 788.349 488.968 788.349C488.378 788.334 487.873 788.185 487.453 787.901ZM494.697 797.244C494.349 796.914 494.103 796.493 493.957 795.981C493.812 795.469 493.754 794.94 493.785 794.394C493.814 793.818 493.926 793.278 494.119 792.772C494.312 792.236 494.581 791.787 494.925 791.425C495.255 791.078 495.638 790.751 496.072 790.446C496.491 790.125 496.943 789.908 497.426 789.792C497.909 789.648 498.409 789.635 498.928 789.754C499.432 789.86 499.933 790.149 500.431 790.623C501.337 791.484 501.802 792.386 501.826 793.328C501.864 794.256 501.438 795.187 500.548 796.124C500.247 796.441 499.864 796.767 499.401 797.103C498.953 797.424 498.465 797.679 497.94 797.87C497.399 798.045 496.848 798.111 496.287 798.066C495.725 797.992 495.195 797.718 494.697 797.244Z" fill="#F2F2F2"/>
<rect x="1771" y="187.924" width="130" height="130" rx="30" transform="rotate(-45 1771 187.924)" fill="#1C1C1C" fill-opacity="0.75"/>
<path d="M1861.45 197.901C1860.64 197.332 1860.09 196.557 1859.78 195.578C1859.48 194.569 1859.35 193.444 1859.41 192.205C1859.45 190.952 1859.64 189.613 1859.99 188.19C1860.32 186.752 1860.73 185.312 1861.21 183.871C1861.65 182.592 1861.99 181.397 1862.25 180.286C1862.48 179.16 1862.57 178.089 1862.5 177.074C1862.43 176.059 1862.16 175.071 1861.69 174.11C1861.23 173.15 1860.49 172.196 1859.5 171.248C1858.46 170.258 1857.39 169.592 1856.31 169.251C1855.21 168.896 1854.14 168.798 1853.1 168.957C1852.05 169.086 1851.06 169.435 1850.12 170.005C1849.17 170.544 1848.33 171.207 1847.58 171.992C1847.02 172.581 1846.6 173.173 1846.32 173.77C1846.03 174.352 1845.81 174.947 1845.66 175.555C1845.53 176.148 1845.42 176.74 1845.35 177.331C1845.28 177.893 1845.19 178.448 1845.1 178.995C1845.02 179.543 1844.87 180.069 1844.68 180.575C1844.47 181.067 1844.16 181.532 1843.74 181.969C1843.57 182.151 1843.38 182.31 1843.16 182.448C1842.93 182.572 1842.67 182.645 1842.39 182.667C1842.1 182.674 1841.78 182.608 1841.46 182.469C1841.13 182.33 1840.78 182.088 1840.42 181.744C1839.94 181.285 1839.64 180.688 1839.54 179.954C1839.43 179.22 1839.45 178.423 1839.61 177.565C1839.76 176.677 1840.01 175.764 1840.36 174.827C1840.7 173.89 1841.08 173.003 1841.51 172.168C1841.93 171.332 1842.35 170.584 1842.78 169.925C1843.21 169.251 1843.61 168.732 1843.95 168.37C1845.36 166.89 1846.85 165.71 1848.44 164.83C1850.04 163.935 1851.65 163.401 1853.28 163.227C1854.93 163.038 1856.57 163.232 1858.2 163.81C1859.85 164.372 1861.44 165.378 1862.97 166.828C1865.31 169.053 1866.77 171.492 1867.35 174.144C1867.95 176.782 1867.66 179.825 1866.48 183.273C1866.19 184.12 1865.89 185.012 1865.57 185.949C1865.27 186.87 1865.08 187.781 1865 188.682C1864.92 189.553 1865.01 190.384 1865.26 191.173C1865.52 191.962 1866.07 192.641 1866.91 193.209C1867.37 193.507 1867.71 193.859 1867.93 194.266C1868.13 194.659 1868.06 195.125 1867.72 195.664C1867.39 196.188 1866.96 196.656 1866.43 197.067C1865.89 197.479 1865.33 197.803 1864.73 198.039C1864.13 198.245 1863.54 198.349 1862.97 198.349C1862.38 198.334 1861.87 198.185 1861.45 197.901ZM1868.7 207.244C1868.35 206.914 1868.1 206.493 1867.96 205.981C1867.81 205.469 1867.75 204.94 1867.78 204.394C1867.81 203.818 1867.93 203.278 1868.12 202.772C1868.31 202.236 1868.58 201.787 1868.93 201.425C1869.26 201.078 1869.64 200.751 1870.07 200.446C1870.49 200.126 1870.94 199.908 1871.43 199.792C1871.91 199.648 1872.41 199.635 1872.93 199.754C1873.43 199.86 1873.93 200.149 1874.43 200.623C1875.34 201.484 1875.8 202.386 1875.83 203.328C1875.86 204.256 1875.44 205.187 1874.55 206.124C1874.25 206.441 1873.86 206.767 1873.4 207.103C1872.95 207.424 1872.47 207.679 1871.94 207.87C1871.4 208.045 1870.85 208.111 1870.29 208.066C1869.73 207.992 1869.2 207.718 1868.7 207.244Z" fill="#F2F2F2"/>
<rect x="1387" y="-0.0761108" width="130" height="130" rx="30" transform="rotate(-45 1387 -0.0761108)" fill="#1C1C1C" fill-opacity="0.75"/>
<path d="M1485.3 5.67902C1485.02 5.98101 1484.71 6.195 1484.39 6.32101C1484.07 6.41757 1483.75 6.45522 1483.42 6.43396C1483.11 6.3976 1482.8 6.30234 1482.49 6.14817C1482.19 5.9789 1481.91 5.77225 1481.65 5.52823C1480.67 4.56576 1479.63 3.50886 1478.54 2.35755C1477.45 1.17678 1476.35 -0.00360973 1475.23 -1.18363C1474.11 -2.36365 1473 -3.51459 1471.91 -4.63645C1470.82 -5.78777 1469.79 -6.82993 1468.81 -7.76295C1468.26 -8.2797 1467.68 -8.75871 1467.07 -9.19996C1466.47 -9.65631 1465.85 -10.0976 1465.22 -10.5237C1464.59 -10.9793 1463.95 -11.4421 1463.31 -11.9121C1462.68 -12.3971 1462.07 -12.9196 1461.48 -13.4794C1461.05 -13.8813 1460.72 -14.3149 1460.47 -14.7802C1460.22 -15.275 1460.06 -15.7572 1459.99 -16.227C1459.92 -16.6967 1459.95 -17.1468 1460.07 -17.5773C1460.19 -18.0371 1460.41 -18.4332 1460.72 -18.7653C1461.6 -19.6864 1462.44 -20.1128 1463.23 -20.0446C1464.03 -19.9763 1464.88 -19.5116 1465.79 -18.6503C1466.32 -18.1479 1467.03 -17.4291 1467.92 -16.4938C1468.83 -15.5737 1469.96 -14.4012 1471.3 -12.9764C1472.64 -11.566 1474.19 -9.88851 1475.96 -7.944C1477.72 -6.01383 1479.73 -3.80265 1481.99 -1.31044C1482.17 -1.10873 1482.41 -0.834886 1482.72 -0.488896C1483.03 -0.158005 1483.36 0.224243 1483.7 0.657848C1484.03 1.062 1484.36 1.50315 1484.68 1.98131C1484.99 2.44512 1485.23 2.91041 1485.42 3.37719C1485.61 3.81452 1485.71 4.23936 1485.72 4.65171C1485.72 5.0497 1485.58 5.39214 1485.3 5.67902ZM1487.98 14.4309C1487.57 14.0434 1487.3 13.623 1487.15 13.1698C1487.01 12.7166 1486.96 12.2684 1487.01 11.8251C1487.05 11.3524 1487.18 10.8997 1487.39 10.467C1487.6 10.0343 1487.87 9.64438 1488.2 9.29709C1488.72 8.75352 1489.23 8.4384 1489.75 8.35173C1490.28 8.24996 1490.8 8.28828 1491.32 8.46669C1491.84 8.6451 1492.35 8.92696 1492.85 9.31229C1493.34 9.69762 1493.82 10.1056 1494.27 10.5362C1494.5 10.7515 1494.72 11.0038 1494.93 11.2932C1495.16 11.5674 1495.32 11.8801 1495.42 12.2313C1495.53 12.5674 1495.54 12.9356 1495.44 13.3358C1495.35 13.736 1495.1 14.1551 1494.68 14.593C1493.56 15.7707 1492.45 16.3073 1491.34 16.2027C1490.23 16.0981 1489.11 15.5075 1487.98 14.4309Z" fill="#F2F2F2"/>
<rect x="1258" y="882.924" width="130" height="130" rx="30" transform="rotate(-45 1258 882.924)" fill="#1C1C1C" fill-opacity="0.75"/>
<path d="M1348.45 892.901C1347.64 892.332 1347.09 891.557 1346.78 890.578C1346.48 889.569 1346.35 888.444 1346.41 887.205C1346.45 885.952 1346.64 884.613 1346.99 883.19C1347.32 881.752 1347.73 880.312 1348.21 878.871C1348.65 877.592 1348.99 876.397 1349.25 875.286C1349.48 874.16 1349.57 873.089 1349.5 872.074C1349.43 871.059 1349.16 870.071 1348.69 869.11C1348.23 868.15 1347.49 867.196 1346.5 866.248C1345.46 865.258 1344.39 864.592 1343.31 864.251C1342.21 863.896 1341.14 863.798 1340.1 863.957C1339.05 864.086 1338.06 864.435 1337.12 865.005C1336.17 865.544 1335.33 866.207 1334.58 866.992C1334.02 867.581 1333.6 868.173 1333.32 868.77C1333.03 869.352 1332.81 869.947 1332.66 870.555C1332.53 871.148 1332.42 871.74 1332.35 872.331C1332.28 872.893 1332.19 873.448 1332.1 873.995C1332.02 874.543 1331.87 875.069 1331.68 875.575C1331.47 876.067 1331.16 876.531 1330.74 876.969C1330.57 877.151 1330.38 877.31 1330.16 877.448C1329.93 877.572 1329.67 877.645 1329.39 877.667C1329.1 877.674 1328.78 877.608 1328.46 877.469C1328.13 877.33 1327.78 877.088 1327.42 876.744C1326.94 876.285 1326.64 875.688 1326.54 874.954C1326.43 874.22 1326.45 873.423 1326.61 872.565C1326.76 871.677 1327.01 870.764 1327.36 869.827C1327.7 868.89 1328.08 868.003 1328.51 867.167C1328.93 866.332 1329.35 865.584 1329.78 864.925C1330.21 864.251 1330.61 863.732 1330.95 863.37C1332.36 861.89 1333.85 860.71 1335.44 859.83C1337.04 858.935 1338.65 858.401 1340.28 858.227C1341.93 858.038 1343.57 858.232 1345.2 858.81C1346.85 859.372 1348.44 860.378 1349.97 861.828C1352.31 864.053 1353.77 866.492 1354.35 869.144C1354.95 871.782 1354.66 874.825 1353.48 878.273C1353.19 879.12 1352.89 880.012 1352.57 880.949C1352.27 881.87 1352.08 882.781 1352 883.682C1351.92 884.553 1352.01 885.384 1352.26 886.173C1352.52 886.962 1353.07 887.641 1353.9 888.209C1354.37 888.507 1354.71 888.859 1354.93 889.266C1355.13 889.659 1355.06 890.125 1354.72 890.664C1354.39 891.188 1353.96 891.656 1353.43 892.067C1352.89 892.479 1352.33 892.803 1351.73 893.039C1351.13 893.245 1350.54 893.349 1349.97 893.349C1349.38 893.334 1348.87 893.185 1348.45 892.901ZM1355.7 902.244C1355.35 901.914 1355.1 901.493 1354.96 900.981C1354.81 900.469 1354.75 899.94 1354.78 899.394C1354.81 898.818 1354.93 898.278 1355.12 897.772C1355.31 897.236 1355.58 896.787 1355.93 896.425C1356.26 896.078 1356.64 895.751 1357.07 895.446C1357.49 895.125 1357.94 894.908 1358.43 894.792C1358.91 894.648 1359.41 894.635 1359.93 894.754C1360.43 894.86 1360.93 895.149 1361.43 895.623C1362.34 896.484 1362.8 897.386 1362.83 898.328C1362.86 899.256 1362.44 900.187 1361.55 901.124C1361.25 901.441 1360.86 901.767 1360.4 902.103C1359.95 902.424 1359.47 902.679 1358.94 902.87C1358.4 903.045 1357.85 903.111 1357.29 903.066C1356.73 902.992 1356.2 902.718 1355.7 902.244Z" fill="#F2F2F2"/>
<rect x="1258" y="383.924" width="130" height="130" rx="30" transform="rotate(-45 1258 383.924)" fill="#1C1C1C" fill-opacity="0.75"/>
<path d="M1348.45 393.901C1347.64 393.332 1347.09 392.557 1346.78 391.578C1346.48 390.569 1346.35 389.444 1346.41 388.205C1346.45 386.952 1346.64 385.613 1346.99 384.19C1347.32 382.752 1347.73 381.312 1348.21 379.871C1348.65 378.592 1348.99 377.397 1349.25 376.286C1349.48 375.16 1349.57 374.089 1349.5 373.074C1349.43 372.059 1349.16 371.071 1348.69 370.11C1348.23 369.15 1347.49 368.196 1346.5 367.248C1345.46 366.258 1344.39 365.592 1343.31 365.251C1342.21 364.896 1341.14 364.798 1340.1 364.957C1339.05 365.086 1338.06 365.435 1337.12 366.005C1336.17 366.544 1335.33 367.207 1334.58 367.992C1334.02 368.581 1333.6 369.173 1333.32 369.77C1333.03 370.352 1332.81 370.947 1332.66 371.555C1332.53 372.148 1332.42 372.74 1332.35 373.331C1332.28 373.893 1332.19 374.448 1332.1 374.995C1332.02 375.543 1331.87 376.069 1331.68 376.575C1331.47 377.067 1331.16 377.532 1330.74 377.969C1330.57 378.151 1330.38 378.31 1330.16 378.448C1329.93 378.572 1329.67 378.645 1329.39 378.667C1329.1 378.674 1328.78 378.608 1328.46 378.469C1328.13 378.33 1327.78 378.088 1327.42 377.744C1326.94 377.285 1326.64 376.688 1326.54 375.954C1326.43 375.22 1326.45 374.423 1326.61 373.565C1326.76 372.677 1327.01 371.764 1327.36 370.827C1327.7 369.89 1328.08 369.003 1328.51 368.168C1328.93 367.332 1329.35 366.584 1329.78 365.925C1330.21 365.251 1330.61 364.732 1330.95 364.37C1332.36 362.89 1333.85 361.71 1335.44 360.83C1337.04 359.935 1338.65 359.401 1340.28 359.227C1341.93 359.038 1343.57 359.232 1345.2 359.81C1346.85 360.372 1348.44 361.378 1349.97 362.828C1352.31 365.053 1353.77 367.492 1354.35 370.144C1354.95 372.782 1354.66 375.825 1353.48 379.273C1353.19 380.12 1352.89 381.012 1352.57 381.949C1352.27 382.87 1352.08 383.781 1352 384.682C1351.92 385.553 1352.01 386.384 1352.26 387.173C1352.52 387.962 1353.07 388.641 1353.9 389.209C1354.37 389.507 1354.71 389.859 1354.93 390.266C1355.13 390.659 1355.06 391.125 1354.72 391.664C1354.39 392.188 1353.96 392.656 1353.43 393.067C1352.89 393.479 1352.33 393.803 1351.73 394.039C1351.13 394.245 1350.54 394.349 1349.97 394.349C1349.38 394.334 1348.87 394.185 1348.45 393.901ZM1355.7 403.244C1355.35 402.914 1355.1 402.493 1354.96 401.981C1354.81 401.469 1354.75 400.94 1354.78 400.394C1354.81 399.818 1354.93 399.278 1355.12 398.772C1355.31 398.236 1355.58 397.787 1355.93 397.425C1356.26 397.078 1356.64 396.751 1357.07 396.446C1357.49 396.126 1357.94 395.908 1358.43 395.792C1358.91 395.648 1359.41 395.635 1359.93 395.754C1360.43 395.86 1360.93 396.149 1361.43 396.623C1362.34 397.484 1362.8 398.386 1362.83 399.328C1362.86 400.256 1362.44 401.187 1361.55 402.124C1361.25 402.441 1360.86 402.767 1360.4 403.103C1359.95 403.424 1359.47 403.679 1358.94 403.87C1358.4 404.045 1357.85 404.111 1357.29 404.066C1356.73 403.992 1356.2 403.718 1355.7 403.244Z" fill="#F2F2F2"/>
<rect x="1587" y="663.924" width="130" height="130" rx="30" transform="rotate(-45 1587 663.924)" fill="#1C1C1C" fill-opacity="0.75"/>
<path d="M1685.3 669.679C1685.02 669.981 1684.71 670.195 1684.39 670.321C1684.07 670.418 1683.75 670.455 1683.42 670.434C1683.11 670.398 1682.8 670.302 1682.49 670.148C1682.19 669.979 1681.91 669.772 1681.65 669.528C1680.67 668.566 1679.63 667.509 1678.54 666.358C1677.45 665.177 1676.35 663.996 1675.23 662.816C1674.11 661.636 1673 660.485 1671.91 659.364C1670.82 658.212 1669.79 657.17 1668.81 656.237C1668.26 655.72 1667.68 655.241 1667.07 654.8C1666.47 654.344 1665.85 653.902 1665.22 653.476C1664.59 653.021 1663.95 652.558 1663.31 652.088C1662.68 651.603 1662.07 651.08 1661.48 650.521C1661.05 650.119 1660.72 649.685 1660.47 649.22C1660.22 648.725 1660.06 648.243 1659.99 647.773C1659.92 647.303 1659.95 646.853 1660.07 646.423C1660.19 645.963 1660.41 645.567 1660.72 645.235C1661.6 644.314 1662.44 643.887 1663.23 643.955C1664.03 644.024 1664.88 644.488 1665.79 645.35C1666.32 645.852 1667.03 646.571 1667.92 647.506C1668.83 648.426 1669.96 649.599 1671.3 651.024C1672.64 652.434 1674.19 654.111 1675.96 656.056C1677.72 657.986 1679.73 660.197 1681.99 662.69C1682.17 662.891 1682.41 663.165 1682.72 663.511C1683.03 663.842 1683.36 664.224 1683.7 664.658C1684.03 665.062 1684.36 665.503 1684.68 665.981C1684.99 666.445 1685.23 666.91 1685.42 667.377C1685.61 667.815 1685.71 668.239 1685.72 668.652C1685.72 669.05 1685.58 669.392 1685.3 669.679ZM1687.98 678.431C1687.57 678.043 1687.3 677.623 1687.15 677.17C1687.01 676.717 1686.96 676.268 1687.01 675.825C1687.05 675.352 1687.18 674.9 1687.39 674.467C1687.6 674.034 1687.87 673.644 1688.2 673.297C1688.72 672.754 1689.23 672.438 1689.75 672.352C1690.28 672.25 1690.8 672.288 1691.32 672.467C1691.84 672.645 1692.35 672.927 1692.85 673.312C1693.34 673.698 1693.82 674.106 1694.27 674.536C1694.5 674.752 1694.72 675.004 1694.93 675.293C1695.16 675.567 1695.32 675.88 1695.42 676.231C1695.53 676.567 1695.54 676.936 1695.44 677.336C1695.35 677.736 1695.1 678.155 1694.68 678.593C1693.56 679.771 1692.45 680.307 1691.34 680.203C1690.23 680.098 1689.11 679.507 1687.98 678.431Z" fill="#F2F2F2"/>
<rect x="805" y="1066.92" width="130" height="130" rx="30" transform="rotate(-45 805 1066.92)" fill="#1C1C1C" fill-opacity="0.75"/>
<path d="M903.304 1072.68C903.017 1072.98 902.713 1073.2 902.392 1073.32C902.07 1073.42 901.747 1073.46 901.422 1073.43C901.112 1073.4 900.8 1073.3 900.487 1073.15C900.188 1072.98 899.91 1072.77 899.653 1072.53C898.671 1071.57 897.635 1070.51 896.545 1069.36C895.454 1068.18 894.348 1067 893.228 1065.82C892.108 1064.64 891.003 1063.49 889.913 1062.36C888.823 1061.21 887.787 1060.17 886.806 1059.24C886.262 1058.72 885.683 1058.24 885.068 1057.8C884.467 1057.34 883.851 1056.9 883.222 1056.48C882.591 1056.02 881.953 1055.56 881.308 1055.09C880.676 1054.6 880.066 1054.08 879.477 1053.52C879.055 1053.12 878.72 1052.69 878.472 1052.22C878.224 1051.73 878.064 1051.24 877.993 1050.77C877.923 1050.3 877.948 1049.85 878.07 1049.42C878.191 1048.96 878.409 1048.57 878.725 1048.23C879.6 1047.31 880.437 1046.89 881.234 1046.96C882.032 1047.02 882.884 1047.49 883.79 1048.35C884.318 1048.85 885.029 1049.57 885.922 1050.51C886.829 1051.43 887.957 1052.6 889.304 1054.02C890.637 1055.43 892.19 1057.11 893.963 1059.06C895.721 1060.99 897.73 1063.2 899.989 1065.69C900.17 1065.89 900.413 1066.17 900.717 1066.51C901.034 1066.84 901.361 1067.22 901.696 1067.66C902.031 1068.06 902.359 1068.5 902.68 1068.98C902.987 1069.45 903.234 1069.91 903.423 1070.38C903.611 1070.81 903.71 1071.24 903.72 1071.65C903.716 1072.05 903.577 1072.39 903.304 1072.68ZM905.979 1081.43C905.571 1081.04 905.295 1080.62 905.151 1080.17C905.007 1079.72 904.959 1079.27 905.007 1078.83C905.054 1078.35 905.182 1077.9 905.392 1077.47C905.603 1077.03 905.873 1076.64 906.203 1076.3C906.72 1075.75 907.235 1075.44 907.748 1075.35C908.276 1075.25 908.8 1075.29 909.321 1075.47C909.841 1075.65 910.349 1075.93 910.845 1076.31C911.341 1076.7 911.816 1077.11 912.269 1077.54C912.495 1077.75 912.715 1078 912.929 1078.29C913.157 1078.57 913.319 1078.88 913.417 1079.23C913.528 1079.57 913.538 1079.94 913.445 1080.34C913.352 1080.74 913.097 1081.16 912.681 1081.59C911.561 1082.77 910.447 1083.31 909.339 1083.2C908.232 1083.1 907.111 1082.51 905.979 1081.43Z" fill="#F2F2F2"/>
<rect y="595.924" width="130" height="130" rx="30" transform="rotate(-45 0 595.924)" fill="#1C1C1C" fill-opacity="0.75"/>
<path d="M98.3041 601.679C98.017 601.981 97.713 602.195 97.392 602.321C97.0702 602.418 96.747 602.455 96.4222 602.434C96.1119 602.398 95.8 602.302 95.4866 602.148C95.1876 601.979 94.9098 601.772 94.6531 601.528C93.6709 600.566 92.6348 599.509 91.5446 598.358C90.4538 597.177 89.3482 595.996 88.2278 594.816C87.1075 593.636 86.0027 592.485 84.9133 591.364C83.8232 590.212 82.7874 589.17 81.8059 588.237C81.2624 587.72 80.6829 587.241 80.0676 586.8C79.4666 586.344 78.8512 585.902 78.2216 585.476C77.5911 585.021 76.9531 584.558 76.3076 584.088C75.6764 583.603 75.0664 583.08 74.4775 582.521C74.0547 582.119 73.7196 581.685 73.472 581.22C73.2237 580.725 73.0642 580.243 72.9933 579.773C72.9225 579.303 72.948 578.853 73.0697 578.423C73.1907 577.963 73.4091 577.567 73.7249 577.235C74.6005 576.314 75.437 575.887 76.2345 575.955C77.032 576.024 77.8837 576.488 78.7896 577.35C79.3181 577.852 80.0289 578.571 80.922 579.506C81.8294 580.426 82.9569 581.599 84.3045 583.024C85.6369 584.434 87.1898 586.111 88.9631 588.056C90.7213 589.986 92.7298 592.197 94.9885 594.69C95.1704 594.891 95.4132 595.165 95.7166 595.511C96.0345 595.842 96.3609 596.224 96.6961 596.658C97.0305 597.062 97.3585 597.503 97.6801 597.981C97.9865 598.445 98.2341 598.91 98.4227 599.377C98.6106 599.815 98.7098 600.239 98.7202 600.652C98.7155 601.05 98.5768 601.392 98.3041 601.679ZM100.979 610.431C100.571 610.043 100.295 609.623 100.151 609.17C100.007 608.717 99.9591 608.268 100.007 607.825C100.054 607.352 100.182 606.9 100.392 606.467C100.603 606.034 100.873 605.644 101.203 605.297C101.72 604.754 102.235 604.438 102.748 604.352C103.276 604.25 103.8 604.288 104.321 604.467C104.841 604.645 105.349 604.927 105.845 605.312C106.341 605.698 106.816 606.106 107.269 606.536C107.495 606.752 107.715 607.004 107.929 607.293C108.157 607.567 108.319 607.88 108.417 608.231C108.528 608.567 108.538 608.936 108.445 609.336C108.352 609.736 108.097 610.155 107.681 610.593C106.561 611.771 105.447 612.307 104.339 612.203C103.232 612.098 102.111 611.507 100.979 610.431Z" fill="#F2F2F2"/>
<rect x="927" y="132.924" width="130" height="130" rx="30" transform="rotate(-45 927 132.924)" fill="#1C1C1C" fill-opacity="0.75"/>
<path d="M1025.3 138.679C1025.02 138.981 1024.71 139.195 1024.39 139.321C1024.07 139.418 1023.75 139.455 1023.42 139.434C1023.11 139.398 1022.8 139.302 1022.49 139.148C1022.19 138.979 1021.91 138.772 1021.65 138.528C1020.67 137.566 1019.63 136.509 1018.54 135.358C1017.45 134.177 1016.35 132.996 1015.23 131.816C1014.11 130.636 1013 129.485 1011.91 128.364C1010.82 127.212 1009.79 126.17 1008.81 125.237C1008.26 124.72 1007.68 124.241 1007.07 123.8C1006.47 123.344 1005.85 122.902 1005.22 122.476C1004.59 122.021 1003.95 121.558 1003.31 121.088C1002.68 120.603 1002.07 120.08 1001.48 119.521C1001.05 119.119 1000.72 118.685 1000.47 118.22C1000.22 117.725 1000.06 117.243 999.993 116.773C999.923 116.303 999.948 115.853 1000.07 115.423C1000.19 114.963 1000.41 114.567 1000.72 114.235C1001.6 113.314 1002.44 112.887 1003.23 112.955C1004.03 113.024 1004.88 113.488 1005.79 114.35C1006.32 114.852 1007.03 115.571 1007.92 116.506C1008.83 117.426 1009.96 118.599 1011.3 120.024C1012.64 121.434 1014.19 123.111 1015.96 125.056C1017.72 126.986 1019.73 129.197 1021.99 131.69C1022.17 131.891 1022.41 132.165 1022.72 132.511C1023.03 132.842 1023.36 133.224 1023.7 133.658C1024.03 134.062 1024.36 134.503 1024.68 134.981C1024.99 135.445 1025.23 135.91 1025.42 136.377C1025.61 136.815 1025.71 137.239 1025.72 137.652C1025.72 138.05 1025.58 138.392 1025.3 138.679ZM1027.98 147.431C1027.57 147.043 1027.3 146.623 1027.15 146.17C1027.01 145.717 1026.96 145.268 1027.01 144.825C1027.05 144.352 1027.18 143.9 1027.39 143.467C1027.6 143.034 1027.87 142.644 1028.2 142.297C1028.72 141.754 1029.23 141.438 1029.75 141.352C1030.28 141.25 1030.8 141.288 1031.32 141.467C1031.84 141.645 1032.35 141.927 1032.85 142.312C1033.34 142.698 1033.82 143.106 1034.27 143.536C1034.5 143.752 1034.72 144.004 1034.93 144.293C1035.16 144.567 1035.32 144.88 1035.42 145.231C1035.53 145.567 1035.54 145.936 1035.44 146.336C1035.35 146.736 1035.1 147.155 1034.68 147.593C1033.56 148.771 1032.45 149.307 1031.34 149.203C1030.23 149.098 1029.11 148.507 1027.98 147.431Z" fill="#F2F2F2"/>
<rect x="335" y="367.924" width="130" height="130" rx="30" transform="rotate(-45 335 367.924)" fill="#1C1C1C" fill-opacity="0.75"/>
<path d="M433.304 373.679C433.017 373.981 432.713 374.195 432.392 374.321C432.07 374.418 431.747 374.455 431.422 374.434C431.112 374.398 430.8 374.302 430.487 374.148C430.188 373.979 429.91 373.772 429.653 373.528C428.671 372.566 427.635 371.509 426.545 370.358C425.454 369.177 424.348 367.996 423.228 366.816C422.108 365.636 421.003 364.485 419.913 363.364C418.823 362.212 417.787 361.17 416.806 360.237C416.262 359.72 415.683 359.241 415.068 358.8C414.467 358.344 413.851 357.902 413.222 357.476C412.591 357.021 411.953 356.558 411.308 356.088C410.676 355.603 410.066 355.08 409.477 354.521C409.055 354.119 408.72 353.685 408.472 353.22C408.224 352.725 408.064 352.243 407.993 351.773C407.922 351.303 407.948 350.853 408.07 350.423C408.191 349.963 408.409 349.567 408.725 349.235C409.6 348.314 410.437 347.887 411.234 347.955C412.032 348.024 412.884 348.488 413.79 349.35C414.318 349.852 415.029 350.571 415.922 351.506C416.829 352.426 417.957 353.599 419.304 355.024C420.637 356.434 422.19 358.111 423.963 360.056C425.721 361.986 427.73 364.197 429.988 366.69C430.17 366.891 430.413 367.165 430.717 367.511C431.034 367.842 431.361 368.224 431.696 368.658C432.031 369.062 432.358 369.503 432.68 369.981C432.987 370.445 433.234 370.91 433.423 371.377C433.611 371.815 433.71 372.239 433.72 372.652C433.716 373.05 433.577 373.392 433.304 373.679ZM435.979 382.431C435.571 382.043 435.295 381.623 435.151 381.17C435.007 380.717 434.959 380.268 435.007 379.825C435.054 379.352 435.182 378.9 435.392 378.467C435.603 378.034 435.873 377.644 436.203 377.297C436.72 376.754 437.235 376.438 437.748 376.352C438.276 376.25 438.8 376.288 439.321 376.467C439.841 376.645 440.349 376.927 440.845 377.312C441.341 377.698 441.816 378.106 442.269 378.536C442.495 378.752 442.715 379.004 442.929 379.293C443.157 379.567 443.319 379.88 443.417 380.231C443.528 380.567 443.538 380.936 443.445 381.336C443.352 381.736 443.097 382.155 442.681 382.593C441.561 383.771 440.447 384.307 439.339 384.203C438.232 384.098 437.111 383.507 435.979 382.431Z" fill="#F2F2F2"/>
<rect x="1669" y="1079.92" width="130" height="130" rx="30" transform="rotate(-45 1669 1079.92)" fill="#1C1C1C" fill-opacity="0.75"/>
<path d="M1767.3 1085.68C1767.02 1085.98 1766.71 1086.2 1766.39 1086.32C1766.07 1086.42 1765.75 1086.46 1765.42 1086.43C1765.11 1086.4 1764.8 1086.3 1764.49 1086.15C1764.19 1085.98 1763.91 1085.77 1763.65 1085.53C1762.67 1084.57 1761.63 1083.51 1760.54 1082.36C1759.45 1081.18 1758.35 1080 1757.23 1078.82C1756.11 1077.64 1755 1076.49 1753.91 1075.36C1752.82 1074.21 1751.79 1073.17 1750.81 1072.24C1750.26 1071.72 1749.68 1071.24 1749.07 1070.8C1748.47 1070.34 1747.85 1069.9 1747.22 1069.48C1746.59 1069.02 1745.95 1068.56 1745.31 1068.09C1744.68 1067.6 1744.07 1067.08 1743.48 1066.52C1743.05 1066.12 1742.72 1065.69 1742.47 1065.22C1742.22 1064.73 1742.06 1064.24 1741.99 1063.77C1741.92 1063.3 1741.95 1062.85 1742.07 1062.42C1742.19 1061.96 1742.41 1061.57 1742.72 1061.23C1743.6 1060.31 1744.44 1059.89 1745.23 1059.96C1746.03 1060.02 1746.88 1060.49 1747.79 1061.35C1748.32 1061.85 1749.03 1062.57 1749.92 1063.51C1750.83 1064.43 1751.96 1065.6 1753.3 1067.02C1754.64 1068.43 1756.19 1070.11 1757.96 1072.06C1759.72 1073.99 1761.73 1076.2 1763.99 1078.69C1764.17 1078.89 1764.41 1079.17 1764.72 1079.51C1765.03 1079.84 1765.36 1080.22 1765.7 1080.66C1766.03 1081.06 1766.36 1081.5 1766.68 1081.98C1766.99 1082.45 1767.23 1082.91 1767.42 1083.38C1767.61 1083.81 1767.71 1084.24 1767.72 1084.65C1767.72 1085.05 1767.58 1085.39 1767.3 1085.68ZM1769.98 1094.43C1769.57 1094.04 1769.3 1093.62 1769.15 1093.17C1769.01 1092.72 1768.96 1092.27 1769.01 1091.83C1769.05 1091.35 1769.18 1090.9 1769.39 1090.47C1769.6 1090.03 1769.87 1089.64 1770.2 1089.3C1770.72 1088.75 1771.23 1088.44 1771.75 1088.35C1772.28 1088.25 1772.8 1088.29 1773.32 1088.47C1773.84 1088.65 1774.35 1088.93 1774.85 1089.31C1775.34 1089.7 1775.82 1090.11 1776.27 1090.54C1776.5 1090.75 1776.72 1091 1776.93 1091.29C1777.16 1091.57 1777.32 1091.88 1777.42 1092.23C1777.53 1092.57 1777.54 1092.94 1777.44 1093.34C1777.35 1093.74 1777.1 1094.16 1776.68 1094.59C1775.56 1095.77 1774.45 1096.31 1773.34 1096.2C1772.23 1096.1 1771.11 1095.51 1769.98 1094.43Z" fill="#F2F2F2"/>
<rect x="89" y="1045.92" width="130" height="130" rx="30" transform="rotate(-45 89 1045.92)" fill="#1C1C1C" fill-opacity="0.75"/>
<path d="M187.304 1051.68C187.017 1051.98 186.713 1052.2 186.392 1052.32C186.07 1052.42 185.747 1052.46 185.422 1052.43C185.112 1052.4 184.8 1052.3 184.487 1052.15C184.188 1051.98 183.91 1051.77 183.653 1051.53C182.671 1050.57 181.635 1049.51 180.545 1048.36C179.454 1047.18 178.348 1046 177.228 1044.82C176.108 1043.64 175.003 1042.49 173.913 1041.36C172.823 1040.21 171.787 1039.17 170.806 1038.24C170.262 1037.72 169.683 1037.24 169.068 1036.8C168.467 1036.34 167.851 1035.9 167.222 1035.48C166.591 1035.02 165.953 1034.56 165.308 1034.09C164.676 1033.6 164.066 1033.08 163.477 1032.52C163.055 1032.12 162.72 1031.69 162.472 1031.22C162.224 1030.73 162.064 1030.24 161.993 1029.77C161.923 1029.3 161.948 1028.85 162.07 1028.42C162.191 1027.96 162.409 1027.57 162.725 1027.23C163.6 1026.31 164.437 1025.89 165.234 1025.96C166.032 1026.02 166.884 1026.49 167.79 1027.35C168.318 1027.85 169.029 1028.57 169.922 1029.51C170.829 1030.43 171.957 1031.6 173.304 1033.02C174.637 1034.43 176.19 1036.11 177.963 1038.06C179.721 1039.99 181.73 1042.2 183.989 1044.69C184.17 1044.89 184.413 1045.17 184.717 1045.51C185.034 1045.84 185.361 1046.22 185.696 1046.66C186.031 1047.06 186.359 1047.5 186.68 1047.98C186.987 1048.45 187.234 1048.91 187.423 1049.38C187.611 1049.81 187.71 1050.24 187.72 1050.65C187.716 1051.05 187.577 1051.39 187.304 1051.68ZM189.979 1060.43C189.571 1060.04 189.295 1059.62 189.151 1059.17C189.007 1058.72 188.959 1058.27 189.007 1057.83C189.054 1057.35 189.182 1056.9 189.392 1056.47C189.603 1056.03 189.873 1055.64 190.203 1055.3C190.72 1054.75 191.235 1054.44 191.748 1054.35C192.276 1054.25 192.8 1054.29 193.321 1054.47C193.841 1054.65 194.349 1054.93 194.845 1055.31C195.341 1055.7 195.816 1056.11 196.269 1056.54C196.495 1056.75 196.715 1057 196.929 1057.29C197.157 1057.57 197.319 1057.88 197.417 1058.23C197.528 1058.57 197.538 1058.94 197.445 1059.34C197.352 1059.74 197.097 1060.16 196.681 1060.59C195.561 1061.77 194.447 1062.31 193.339 1062.2C192.232 1062.1 191.111 1061.51 189.979 1060.43Z" fill="#F2F2F2"/>
</svg>
