<svg width="30" height="30" viewBox="0 0 29 30" fill="none" xmlns="http://www.w3.org/2000/svg">
<path d="M28.1421 15C28.1421 18.9782 26.6877 22.7936 24.0988 25.6066C21.5099 28.4196 17.9986 30 14.3374 30C10.6762 30 7.1649 28.4196 4.57601 25.6066C1.98713 22.7936 0.532715 18.9782 0.532715 15C0.532715 11.0218 1.98713 7.20644 4.57601 4.3934C7.1649 1.58035 10.6762 0 14.3374 0C17.9986 0 21.5099 1.58035 24.0988 4.3934C26.6877 7.20644 28.1421 11.0218 28.1421 15ZM21.2915 9.31875C21.1683 9.18528 21.0215 9.0802 20.86 9.00978C20.6985 8.93936 20.5256 8.90505 20.3516 8.9089C20.1777 8.91275 20.0062 8.95468 19.8475 9.03219C19.6887 9.1097 19.546 9.22119 19.4279 9.36L13.4349 17.6569L9.82327 13.7306C9.57794 13.4822 9.25345 13.347 8.91816 13.3534C8.58288 13.3598 8.26298 13.5074 8.02586 13.7651C7.78874 14.0227 7.65292 14.3703 7.64701 14.7346C7.64109 15.099 7.76554 15.4515 7.99415 15.7181L12.5601 20.6812C12.6831 20.8147 12.8295 20.9198 12.9907 20.9904C13.1519 21.0609 13.3246 21.0955 13.4983 21.092C13.6721 21.0885 13.8434 21.047 14.0021 20.97C14.1608 20.893 14.3036 20.782 14.422 20.6438L21.3105 11.2875C21.5453 11.0222 21.6751 10.6674 21.6718 10.2993C21.6686 9.9312 21.5327 9.57916 21.2932 9.31875H21.2915Z" fill="#F2293D"/>
</svg>
